<?xml version="1.0" standalone="no"?>
<!DOCTYPE svg PUBLIC "-//W3C//DTD SVG 20010904//EN"
 "http://www.w3.org/TR/2001/REC-SVG-20010904/DTD/svg10.dtd">
<svg version="1.0" xmlns="http://www.w3.org/2000/svg"
 width="401.000000pt" height="104.000000pt" viewBox="0 0 401.000000 104.000000"
 preserveAspectRatio="xMidYMid meet">

<g transform="translate(0.000000,104.000000) scale(0.100000,-0.100000)"
fill="#000000" stroke="none">
<path d="M556 549 c-151 -179 -240 -276 -262 -287 -19 -8 -34 -19 -34 -24 0
-4 38 -8 85 -8 80 0 109 11 65 25 -31 10 -24 38 28 104 l47 60 91 1 92 0 -5
-67 c-6 -74 -22 -103 -60 -103 -12 0 -23 -4 -23 -10 0 -11 242 -14 253 -3 4 3
-3 11 -16 18 -22 11 -22 14 -20 190 1 99 4 224 8 278 5 76 3 97 -7 96 -7 0
-116 -122 -242 -270z m116 -6 l-4 -83 -69 0 c-38 0 -69 2 -69 5 0 7 142 167
144 163 1 -2 0 -40 -2 -85z"/>
<path d="M1760 803 c-54 -13 -61 -17 -42 -24 28 -10 28 -28 -1 -113 -23 -67
-23 -67 -41 -47 -37 41 -108 19 -173 -52 -64 -69 -95 -139 -101 -224 -4 -67
-3 -73 21 -97 45 -45 101 -28 155 48 18 25 35 46 37 46 1 0 -2 -18 -7 -40 -9
-34 -8 -44 7 -60 31 -34 82 -24 138 28 40 37 35 61 -5 26 -28 -22 -34 -24 -36
-10 -3 12 126 447 154 520 8 20 -17 20 -106 -1z m-96 -258 c0 -61 -5 -81 -41
-156 -44 -90 -84 -129 -103 -99 -15 24 -11 73 11 146 38 123 78 187 113 182
19 -3 21 -10 20 -73z"/>
<path d="M1075 635 c-5 -2 -37 -9 -70 -16 -56 -11 -58 -13 -32 -21 17 -6 27
-17 27 -29 0 -14 -68 -249 -95 -327 -4 -10 9 -12 51 -10 l56 3 24 74 c35 111
137 251 183 251 17 0 13 -25 -25 -146 -41 -133 -42 -174 -3 -188 14 -5 38 -6
52 -2 34 8 97 63 97 84 0 12 -7 9 -28 -11 -55 -53 -55 -33 0 133 42 130 45
162 12 194 -8 9 -26 16 -38 16 -36 0 -109 -55 -154 -116 -23 -31 -42 -52 -42
-46 0 6 11 45 24 87 l24 75 -27 -1 c-14 0 -30 -2 -36 -4z"/>
<path d="M2070 631 c-84 -26 -158 -89 -202 -173 -16 -32 -22 -61 -23 -110 0
-60 3 -70 27 -94 52 -52 181 -40 259 25 44 37 34 47 -22 21 -55 -25 -111 -26
-131 -2 -22 25 -29 50 -22 77 5 18 15 25 47 30 94 15 175 74 197 141 11 34 1
69 -24 86 -14 10 -73 9 -106 -1z m34 -64 c-2 -66 -76 -147 -133 -147 -24 0 53
160 87 179 31 19 47 8 46 -32z"/>
<path d="M2331 619 c-69 -20 -86 -29 -54 -29 46 0 46 -20 -2 -185 -25 -86 -45
-161 -45 -166 0 -5 22 -9 49 -9 l49 0 28 82 c33 102 79 201 101 219 13 12 18
11 31 -9 8 -12 20 -22 28 -22 35 0 60 100 32 128 -33 33 -77 -5 -131 -113 -20
-38 -36 -67 -37 -64 0 3 14 45 30 94 17 49 30 90 30 92 0 7 -50 -1 -109 -18z"/>
<path d="M2669 617 c-37 -25 -57 -76 -46 -118 4 -13 34 -57 67 -98 53 -64 61
-79 58 -110 -4 -45 -42 -63 -84 -41 -26 14 -64 76 -64 105 0 33 -19 13 -25
-27 -3 -24 -9 -58 -12 -75 -5 -33 4 -42 24 -22 8 8 22 8 49 0 114 -32 204 24
204 126 0 33 -8 52 -45 101 -24 32 -51 65 -60 72 -8 7 -15 27 -15 45 0 33 13
45 49 45 25 0 70 -51 77 -88 10 -47 21 -39 29 21 3 28 8 59 11 67 3 12 -12 15
-90 17 -83 2 -97 0 -127 -20z"/>
<path d="M3117 626 c-85 -31 -167 -127 -188 -222 -15 -67 -6 -114 30 -148 114
-109 351 61 351 251 0 107 -83 158 -193 119z m83 -27 c25 -45 -30 -253 -86
-326 -42 -55 -84 -39 -84 32 0 83 77 294 112 308 27 11 48 6 58 -14z"/>
<path d="M3525 635 c-5 -2 -37 -9 -70 -16 -56 -11 -58 -13 -32 -21 17 -6 27
-17 27 -29 0 -14 -68 -249 -95 -327 -4 -10 9 -12 51 -10 l56 3 24 74 c35 111
137 251 183 251 17 0 13 -25 -25 -146 -41 -133 -42 -174 -3 -188 14 -5 38 -6
52 -2 34 8 97 63 97 84 0 12 -7 9 -28 -11 -55 -53 -55 -33 0 133 42 130 45
162 12 194 -8 9 -26 16 -38 16 -36 0 -109 -55 -154 -116 -23 -31 -42 -52 -42
-46 0 6 11 45 24 87 l24 75 -27 -1 c-14 0 -30 -2 -36 -4z"/>
</g>
</svg>
